<svg width="1400" height="900" viewBox="0 0 1400 900" fill="none" xmlns="http://www.w3.org/2000/svg">
  <rect width="1400" height="900" rx="30" fill="#070D1B"/>
  <ellipse cx="223" cy="120" rx="260" ry="160" fill="#2F5FFF" fill-opacity="0.35"/>
  <ellipse cx="1180" cy="150" rx="280" ry="190" fill="#7C3AED" fill-opacity="0.25"/>
  <ellipse cx="680" cy="850" rx="600" ry="220" fill="#0EA5E9" fill-opacity="0.16"/>

  <rect x="82" y="74" width="1236" height="752" rx="28" fill="#0D162B" stroke="#1E335A"/>
  <rect x="82" y="74" width="1236" height="58" rx="28" fill="#121E37"/>
  <circle cx="121" cy="103" r="7" fill="#2D6BFF"/>
  <circle cx="146" cy="103" r="7" fill="#22C55E"/>
  <circle cx="171" cy="103" r="7" fill="#F59E0B"/>
  <rect x="220" y="91" width="160" height="24" rx="12" fill="#1B2D4E"/>
  <rect x="970" y="91" width="140" height="24" rx="12" fill="#1B2D4E"/>
  <rect x="1124" y="91" width="160" height="24" rx="12" fill="#2D6BFF"/>

  <rect x="118" y="164" width="238" height="625" rx="22" fill="#111D35"/>
  <rect x="145" y="198" width="184" height="18" rx="9" fill="#203A67"/>
  <rect x="145" y="230" width="124" height="12" rx="6" fill="#1A2E50"/>
  <rect x="145" y="258" width="166" height="12" rx="6" fill="#1A2E50"/>
  <rect x="145" y="286" width="140" height="12" rx="6" fill="#1A2E50"/>
  <rect x="145" y="342" width="184" height="88" rx="14" fill="#0E172A" stroke="#2A4068"/>
  <rect x="162" y="361" width="78" height="10" rx="5" fill="#2D6BFF"/>
  <rect x="162" y="381" width="150" height="8" rx="4" fill="#20365D"/>
  <rect x="162" y="398" width="130" height="8" rx="4" fill="#20365D"/>
  <rect x="145" y="460" width="184" height="88" rx="14" fill="#0E172A" stroke="#2A4068"/>
  <rect x="162" y="479" width="66" height="10" rx="5" fill="#7C3AED"/>
  <rect x="162" y="499" width="150" height="8" rx="4" fill="#20365D"/>
  <rect x="162" y="516" width="118" height="8" rx="4" fill="#20365D"/>

  <rect x="388" y="164" width="894" height="244" rx="22" fill="#111D35"/>
  <rect x="418" y="198" width="248" height="20" rx="10" fill="#294678"/>
  <rect x="418" y="230" width="474" height="12" rx="6" fill="#1E355B"/>
  <rect x="418" y="252" width="510" height="12" rx="6" fill="#1E355B"/>
  <rect x="418" y="282" width="164" height="46" rx="12" fill="#2D6BFF"/>
  <rect x="598" y="282" width="164" height="46" rx="12" fill="#1A2E4F"/>
  <rect x="778" y="282" width="164" height="46" rx="12" fill="#1A2E4F"/>

  <rect x="418" y="448" width="420" height="342" rx="22" fill="#111D35"/>
  <rect x="450" y="480" width="176" height="18" rx="9" fill="#26416F"/>
  <rect x="450" y="516" width="324" height="10" rx="5" fill="#1E3458"/>
  <rect x="450" y="536" width="280" height="10" rx="5" fill="#1E3458"/>
  <rect x="450" y="575" width="96" height="12" rx="6" fill="#2D6BFF"/>
  <rect x="450" y="598" width="352" height="30" rx="10" fill="#0D172A" stroke="#2B426A"/>
  <rect x="450" y="640" width="352" height="30" rx="10" fill="#0D172A" stroke="#2B426A"/>
  <rect x="450" y="682" width="352" height="30" rx="10" fill="#0D172A" stroke="#2B426A"/>

  <rect x="862" y="448" width="420" height="208" rx="22" fill="#111D35"/>
  <rect x="894" y="480" width="164" height="18" rx="9" fill="#26416F"/>
  <rect x="894" y="514" width="354" height="10" rx="5" fill="#1E3458"/>
  <rect x="894" y="534" width="312" height="10" rx="5" fill="#1E3458"/>
  <path d="M902 608C936 576 962 591 995 566C1020 546 1050 552 1072 531C1095 510 1124 520 1150 503C1176 486 1205 497 1243 458" stroke="#2D6BFF" stroke-width="4" stroke-linecap="round"/>
  <circle cx="902" cy="608" r="6" fill="#2D6BFF"/>
  <circle cx="995" cy="566" r="6" fill="#2D6BFF"/>
  <circle cx="1072" cy="531" r="6" fill="#2D6BFF"/>
  <circle cx="1150" cy="503" r="6" fill="#2D6BFF"/>
  <circle cx="1243" cy="458" r="6" fill="#2D6BFF"/>

  <rect x="862" y="680" width="420" height="110" rx="22" fill="#111D35"/>
  <rect x="894" y="711" width="210" height="14" rx="7" fill="#7C3AED"/>
  <rect x="894" y="737" width="350" height="10" rx="5" fill="#1E3458"/>
  <rect x="894" y="757" width="300" height="10" rx="5" fill="#1E3458"/>

  <rect x="1140" y="286" width="120" height="194" rx="24" fill="#0C1528" stroke="#355B9A"/>
  <rect x="1155" y="306" width="90" height="8" rx="4" fill="#294678"/>
  <rect x="1155" y="324" width="62" height="8" rx="4" fill="#1E355B"/>
  <rect x="1155" y="352" width="90" height="56" rx="10" fill="#172A4A"/>
  <rect x="1165" y="366" width="70" height="10" rx="5" fill="#2D6BFF"/>
  <rect x="1165" y="384" width="56" height="8" rx="4" fill="#20385F"/>
  <rect x="1155" y="420" width="90" height="12" rx="6" fill="#1E355B"/>
  <rect x="1155" y="442" width="74" height="12" rx="6" fill="#1E355B"/>
</svg>
