<svg width="980" height="620" viewBox="0 0 980 620" fill="none" xmlns="http://www.w3.org/2000/svg">
  <rect width="980" height="620" rx="28" fill="#060E1E"/>
  <rect x="20" y="20" width="940" height="52" rx="14" fill="#0F1B33"/>
  <circle cx="50" cy="46" r="6" fill="#2D6BFF"/>
  <circle cx="72" cy="46" r="6" fill="#1FC7A1"/>
  <circle cx="94" cy="46" r="6" fill="#F59E0B"/>
  <rect x="132" y="34" width="180" height="24" rx="12" fill="#142542"/>
  <rect x="334" y="34" width="100" height="24" rx="12" fill="#142542"/>
  <rect x="454" y="34" width="100" height="24" rx="12" fill="#142542"/>
  <rect x="574" y="34" width="100" height="24" rx="12" fill="#142542"/>
  <rect x="40" y="94" width="190" height="486" rx="18" fill="#0E1A31"/>
  <rect x="60" y="124" width="150" height="16" rx="8" fill="#1A335D"/>
  <rect x="60" y="156" width="120" height="12" rx="6" fill="#15294B"/>
  <rect x="60" y="185" width="140" height="12" rx="6" fill="#15294B"/>
  <rect x="60" y="214" width="110" height="12" rx="6" fill="#15294B"/>
  <rect x="252" y="94" width="688" height="150" rx="18" fill="#0E1A31"/>
  <rect x="272" y="114" width="260" height="18" rx="9" fill="#203B69"/>
  <rect x="272" y="144" width="380" height="12" rx="6" fill="#162C50"/>
  <rect x="272" y="166" width="420" height="12" rx="6" fill="#162C50"/>
  <rect x="272" y="188" width="150" height="34" rx="10" fill="#2D6BFF"/>
  <rect x="440" y="188" width="150" height="34" rx="10" fill="#1C2E4F"/>
  <rect x="252" y="264" width="220" height="150" rx="18" fill="#0E1A31"/>
  <rect x="492" y="264" width="220" height="150" rx="18" fill="#0E1A31"/>
  <rect x="732" y="264" width="208" height="150" rx="18" fill="#0E1A31"/>
  <rect x="270" y="286" width="150" height="14" rx="7" fill="#1B335A"/>
  <rect x="270" y="312" width="180" height="12" rx="6" fill="#132646"/>
  <rect x="270" y="336" width="170" height="12" rx="6" fill="#132646"/>
  <rect x="510" y="286" width="150" height="14" rx="7" fill="#1B335A"/>
  <rect x="510" y="312" width="180" height="12" rx="6" fill="#132646"/>
  <rect x="510" y="336" width="170" height="12" rx="6" fill="#132646"/>
  <rect x="750" y="286" width="150" height="14" rx="7" fill="#1B335A"/>
  <rect x="750" y="312" width="150" height="12" rx="6" fill="#132646"/>
  <rect x="750" y="336" width="120" height="12" rx="6" fill="#132646"/>
  <rect x="252" y="434" width="688" height="146" rx="18" fill="#0E1A31"/>
  <rect x="272" y="454" width="180" height="14" rx="7" fill="#1B335A"/>
  <rect x="272" y="478" width="648" height="10" rx="5" fill="#11223F"/>
  <rect x="272" y="498" width="620" height="10" rx="5" fill="#11223F"/>
  <rect x="272" y="518" width="650" height="10" rx="5" fill="#11223F"/>
  <rect x="272" y="538" width="590" height="10" rx="5" fill="#11223F"/>
</svg>
